<svg id="图层_1" data-name="图层 1" xmlns="http://www.w3.org/2000/svg" viewBox="0 0 841.89 595.28"><defs><style>.cls-1{fill:#a52524;}.cls-2{fill:#fff;}</style></defs><title>中科国维LOGO 0408全透明</title><path class="cls-1" d="M308.1,203.43h0l1,1.2Z"/><circle class="cls-2" cx="423.3" cy="281.46" r="115.21"/><path class="cls-1" d="M416.62,274c-.65-1.52-1.23-3.06-2-4.52a2.18,2.18,0,0,0-3.93-.18,8.21,8.21,0,0,0-.72,1.34q-3,6.38-6.05,12.74c-1.46,3.09-3,6.14-4.35,9.27-2.23,5.2.71,9.94,6.07,9.93a7.41,7.41,0,0,0,4.76-1.84c4.2-3.37,8.41-6.75,12.63-10.1a.8.8,0,0,0,.26-1.13C421.05,284.33,418.84,279.16,416.62,274Z"/><path class="cls-1" d="M480.5,275.24l-10.65,10.64-10.66-10.67,10.66-10.66-10-10-10.66,10.66-10.66-10.66,10.66-10.66-10-10-10.66,10.66-10.67-10.66,10.29-10.29a15.68,15.68,0,0,0-19,2.42l-48.84,48.84a15.69,15.69,0,0,0,0,22.13l48.84,48.84a15.69,15.69,0,0,0,22.13,0l48.84-48.84A15.68,15.68,0,0,0,480.5,275.24Zm-70.4,32.37c-1.3,1-2.6,2-3.88,3.05A9.89,9.89,0,0,1,390.33,305a11.58,11.58,0,0,1,1.19-7.41q6.56-13.75,13.08-27.51,2.41-5.07,4.81-10.15c3.19-6.72,10.58-7.89,15.4-4.11a10.8,10.8,0,0,1,3.09,3.92q7.31,15.28,14.52,30.61a3.08,3.08,0,0,1,.12.42c-1.19-.27-2.3-.61-3.44-.76a13.27,13.27,0,0,0-10.35,3.08C422.57,298,416.32,302.77,410.1,307.61Zm28.18,6.45a9.88,9.88,0,1,1,10.2-9.69A9.93,9.93,0,0,1,438.28,314.06Z"/><rect class="cls-1" x="431.45" y="215.67" width="14.87" height="14.87" transform="translate(286.31 -244.99) rotate(45)"/><rect class="cls-1" x="452.2" y="236.43" width="14.87" height="14.87" transform="translate(307.06 -253.59) rotate(45)"/><rect class="cls-1" x="472.95" y="257.18" width="14.87" height="14.87" transform="translate(327.81 -262.18) rotate(45)"/><rect class="cls-1" x="458.04" y="214.92" width="10.66" height="10.66" transform="translate(291.46 -263.14) rotate(45)"/><rect class="cls-1" x="477.92" y="234.8" width="10.66" height="10.66" transform="translate(311.34 -271.38) rotate(45)"/><rect class="cls-1" x="480.51" y="214.68" width="8.31" height="8.31" transform="translate(-12.79 406.8) rotate(-45)"/></svg>